<svg id="visual" viewBox="0 0 1920 1080" width="1920" height="1080" xmlns="http://www.w3.org/2000/svg" xmlns:xlink="http://www.w3.org/1999/xlink" version="1.1"><rect x="0" y="0" width="1920" height="1080" fill="#3D405B"></rect><defs><linearGradient id="grad1_0" x1="43.8%" y1="0%" x2="100%" y2="100%"><stop offset="14.444444444444446%" stop-color="#3d405b" stop-opacity="1"></stop><stop offset="85.55555555555554%" stop-color="#3d405b" stop-opacity="1"></stop></linearGradient></defs><defs><linearGradient id="grad2_0" x1="0%" y1="0%" x2="56.3%" y2="100%"><stop offset="14.444444444444446%" stop-color="#3d405b" stop-opacity="1"></stop><stop offset="85.55555555555554%" stop-color="#3d405b" stop-opacity="1"></stop></linearGradient></defs><g transform="translate(1920, 0)"><path d="M0 864C-53.8 780.2 -107.7 696.4 -185.1 690.6C-262.5 684.9 -363.4 757.3 -432 748.2C-500.6 739.2 -536.7 648.7 -583.4 583.4C-630 518 -687.3 477.8 -730.1 421.5C-772.8 365.2 -801.1 292.9 -821 220C-840.9 147.1 -852.5 73.5 -864 0L0 0Z" fill="#e07a57"></path></g><g transform="translate(0, 1080)"><path d="M0 -864C80.6 -868.4 161.3 -872.7 223.6 -834.6C286 -796.4 330 -715.7 386 -668.6C442 -621.4 510 -607.9 568.5 -568.5C627 -529.1 676.1 -463.9 680.7 -393C685.3 -322.1 645.3 -245.5 668.4 -179.1C691.6 -112.7 777.8 -56.3 864 0L0 0Z" fill="#e07a57"></path></g></svg>