<svg id="visual" viewBox="0 0 1920 1500" width="1920" height="1500" xmlns="http://www.w3.org/2000/svg" xmlns:xlink="http://www.w3.org/1999/xlink" version="1.1"><rect x="0" y="0" width="1920" height="1500" fill="#3D405B"></rect><defs><linearGradient id="grad1_0" x1="21.9%" y1="0%" x2="100%" y2="100%"><stop offset="24.4%" stop-color="#3d405b" stop-opacity="1"></stop><stop offset="75.6%" stop-color="#3d405b" stop-opacity="1"></stop></linearGradient></defs><defs><linearGradient id="grad2_0" x1="0%" y1="0%" x2="78.1%" y2="100%"><stop offset="24.4%" stop-color="#3d405b" stop-opacity="1"></stop><stop offset="75.6%" stop-color="#3d405b" stop-opacity="1"></stop></linearGradient></defs><g transform="translate(1920, 0)"><path d="M0 974.6C-69.9 915.6 -139.8 856.5 -227 847.1C-314.1 837.7 -418.6 877.9 -487.3 844C-556 810.2 -589 702.3 -617.3 617.3C-645.6 532.3 -669.1 470 -714.5 412.5C-759.9 355 -827.2 302.2 -874.2 234.2C-921.2 166.3 -947.9 83.1 -974.6 0L0 0Z" fill="#e07a57"></path></g><g transform="translate(0, 1500)"><path d="M0 -974.6C78.4 -933.6 156.8 -892.6 232.4 -867.4C308 -842.2 380.9 -832.7 470.5 -814.9C560.1 -797.2 666.6 -771.1 689.1 -689.1C711.7 -607.2 650.2 -469.2 675.5 -390C700.8 -310.8 812.8 -290.2 877.1 -235C941.4 -179.8 958 -89.9 974.6 0L0 0Z" fill="#e07a57"></path></g></svg>