<svg id="visual" viewBox="0 0 960 540" width="960" height="540" xmlns="http://www.w3.org/2000/svg" xmlns:xlink="http://www.w3.org/1999/xlink" version="1.1"><rect x="0" y="0" width="960" height="540" fill="#001220"></rect><path d="M0 285L12.3 289.8C24.7 294.7 49.3 304.3 74 307.5C98.7 310.7 123.3 307.3 148 306.5C172.7 305.7 197.3 307.3 221.8 311.2C246.3 315 270.7 321 295.2 321.7C319.7 322.3 344.3 317.7 369 317.8C393.7 318 418.3 323 443 326.7C467.7 330.3 492.3 332.7 517 327.5C541.7 322.3 566.3 309.7 591 309.8C615.7 310 640.3 323 664.8 324.3C689.3 325.7 713.7 315.3 738.2 311.7C762.7 308 787.3 311 812 311.5C836.7 312 861.3 310 886 305C910.7 300 935.3 292 947.7 288L960 284L960 541L947.7 541C935.3 541 910.7 541 886 541C861.3 541 836.7 541 812 541C787.3 541 762.7 541 738.2 541C713.7 541 689.3 541 664.8 541C640.3 541 615.7 541 591 541C566.3 541 541.7 541 517 541C492.3 541 467.7 541 443 541C418.3 541 393.7 541 369 541C344.3 541 319.7 541 295.2 541C270.7 541 246.3 541 221.8 541C197.3 541 172.7 541 148 541C123.3 541 98.7 541 74 541C49.3 541 24.7 541 12.3 541L0 541Z" fill="#e81b0d"></path><path d="M0 380L12.3 374.7C24.7 369.3 49.3 358.7 74 351C98.7 343.3 123.3 338.7 148 337.3C172.7 336 197.3 338 221.8 344.7C246.3 351.3 270.7 362.7 295.2 364.7C319.7 366.7 344.3 359.3 369 358.3C393.7 357.3 418.3 362.7 443 360.5C467.7 358.3 492.3 348.7 517 349.8C541.7 351 566.3 363 591 366.8C615.7 370.7 640.3 366.3 664.8 358.8C689.3 351.3 713.7 340.7 738.2 343.8C762.7 347 787.3 364 812 369.2C836.7 374.3 861.3 367.7 886 359.2C910.7 350.7 935.3 340.3 947.7 335.2L960 330L960 541L947.7 541C935.3 541 910.7 541 886 541C861.3 541 836.7 541 812 541C787.3 541 762.7 541 738.2 541C713.7 541 689.3 541 664.8 541C640.3 541 615.7 541 591 541C566.3 541 541.7 541 517 541C492.3 541 467.7 541 443 541C418.3 541 393.7 541 369 541C344.3 541 319.7 541 295.2 541C270.7 541 246.3 541 221.8 541C197.3 541 172.7 541 148 541C123.3 541 98.7 541 74 541C49.3 541 24.7 541 12.3 541L0 541Z" fill="#ef5208"></path><path d="M0 401L12.3 397.8C24.7 394.7 49.3 388.3 74 385.5C98.7 382.7 123.3 383.3 148 385.2C172.7 387 197.3 390 221.8 396C246.3 402 270.7 411 295.2 412.7C319.7 414.3 344.3 408.7 369 403.2C393.7 397.7 418.3 392.3 443 387.8C467.7 383.3 492.3 379.7 517 381.7C541.7 383.7 566.3 391.3 591 393.5C615.7 395.7 640.3 392.3 664.8 390.8C689.3 389.3 713.7 389.7 738.2 388.2C762.7 386.7 787.3 383.3 812 384.8C836.7 386.3 861.3 392.7 886 399.5C910.7 406.3 935.3 413.7 947.7 417.3L960 421L960 541L947.7 541C935.3 541 910.7 541 886 541C861.3 541 836.7 541 812 541C787.3 541 762.7 541 738.2 541C713.7 541 689.3 541 664.8 541C640.3 541 615.7 541 591 541C566.3 541 541.7 541 517 541C492.3 541 467.7 541 443 541C418.3 541 393.7 541 369 541C344.3 541 319.7 541 295.2 541C270.7 541 246.3 541 221.8 541C197.3 541 172.7 541 148 541C123.3 541 98.7 541 74 541C49.3 541 24.7 541 12.3 541L0 541Z" fill="#f47511"></path><path d="M0 458L12.3 454.2C24.7 450.3 49.3 442.7 74 441C98.7 439.3 123.3 443.7 148 447.7C172.7 451.7 197.3 455.3 221.8 454.3C246.3 453.3 270.7 447.7 295.2 443.8C319.7 440 344.3 438 369 437C393.7 436 418.3 436 443 439C467.7 442 492.3 448 517 446.8C541.7 445.7 566.3 437.3 591 433.3C615.7 429.3 640.3 429.7 664.8 430.8C689.3 432 713.7 434 738.2 434.5C762.7 435 787.3 434 812 437.8C836.7 441.7 861.3 450.3 886 450.7C910.7 451 935.3 443 947.7 439L960 435L960 541L947.7 541C935.3 541 910.7 541 886 541C861.3 541 836.7 541 812 541C787.3 541 762.7 541 738.2 541C713.7 541 689.3 541 664.8 541C640.3 541 615.7 541 591 541C566.3 541 541.7 541 517 541C492.3 541 467.7 541 443 541C418.3 541 393.7 541 369 541C344.3 541 319.7 541 295.2 541C270.7 541 246.3 541 221.8 541C197.3 541 172.7 541 148 541C123.3 541 98.7 541 74 541C49.3 541 24.7 541 12.3 541L0 541Z" fill="#f89324"></path><path d="M0 499L12.3 498.2C24.7 497.3 49.3 495.7 74 492.7C98.7 489.7 123.3 485.3 148 484C172.7 482.7 197.3 484.3 221.8 485.7C246.3 487 270.7 488 295.2 488.7C319.7 489.3 344.3 489.7 369 488.8C393.7 488 418.3 486 443 483C467.7 480 492.3 476 517 478.5C541.7 481 566.3 490 591 493.7C615.7 497.3 640.3 495.7 664.8 493.8C689.3 492 713.7 490 738.2 490.8C762.7 491.7 787.3 495.3 812 492.8C836.7 490.3 861.3 481.7 886 480.2C910.7 478.7 935.3 484.3 947.7 487.2L960 490L960 541L947.7 541C935.3 541 910.7 541 886 541C861.3 541 836.7 541 812 541C787.3 541 762.7 541 738.2 541C713.7 541 689.3 541 664.8 541C640.3 541 615.7 541 591 541C566.3 541 541.7 541 517 541C492.3 541 467.7 541 443 541C418.3 541 393.7 541 369 541C344.3 541 319.7 541 295.2 541C270.7 541 246.3 541 221.8 541C197.3 541 172.7 541 148 541C123.3 541 98.7 541 74 541C49.3 541 24.7 541 12.3 541L0 541Z" fill="#fcaf3c"></path></svg>